<svg width="20" height="20" viewBox="0 0 20 20" fill="none" xmlns="http://www.w3.org/2000/svg">
<g clip-path="url(#clip0_721_8369)">
<path d="M18.8389 12.8571H16.5175V9.46429C16.5175 9.36607 16.4372 9.28571 16.3389 9.28571H10.8032V7.14286H13.2139C13.4104 7.14286 13.5711 6.98214 13.5711 6.78571V0.357143C13.5711 0.160714 13.4104 0 13.2139 0H6.78537C6.58894 0 6.42822 0.160714 6.42822 0.357143V6.78571C6.42822 6.98214 6.58894 7.14286 6.78537 7.14286H9.19608V9.28571H3.66037C3.56215 9.28571 3.48179 9.36607 3.48179 9.46429V12.8571H1.16037C0.963937 12.8571 0.803223 13.0179 0.803223 13.2143V19.6429C0.803223 19.8393 0.963937 20 1.16037 20H7.58894C7.78537 20 7.94608 19.8393 7.94608 19.6429V13.2143C7.94608 13.0179 7.78537 12.8571 7.58894 12.8571H5.08894V10.8929H14.9104V12.8571H12.4104C12.2139 12.8571 12.0532 13.0179 12.0532 13.2143V19.6429C12.0532 19.8393 12.2139 20 12.4104 20H18.8389C19.0354 20 19.1961 19.8393 19.1961 19.6429V13.2143C19.1961 13.0179 19.0354 12.8571 18.8389 12.8571ZM6.24965 14.5536V18.3036H2.49965V14.5536H6.24965ZM8.12465 5.44643V1.69643H11.8747V5.44643H8.12465ZM17.4997 18.3036H13.7497V14.5536H17.4997V18.3036Z" fill="white"/>
</g>
<defs>
<clipPath id="clip0_721_8369">
<rect width="20" height="20" fill="white"/>
</clipPath>
</defs>
</svg>
