<svg width="21" height="22" viewBox="0 0 21 22" fill="none" xmlns="http://www.w3.org/2000/svg">
<path d="M20.156 21.4974H0.843C0.619504 21.4971 0.405237 21.4082 0.247201 21.2502C0.0891654 21.0922 0.000264649 20.8779 0 20.6544L0 1.31739C0.00753075 1.09871 0.0996973 0.891499 0.257062 0.73946C0.414426 0.587422 0.624687 0.502441 0.8435 0.502441C1.06231 0.502441 1.27257 0.587422 1.42994 0.73946C1.5873 0.891499 1.67947 1.09871 1.687 1.31739V19.8104H20.156C20.3798 19.8104 20.5945 19.8993 20.7528 20.0576C20.9111 20.2159 21 20.4306 21 20.6544C21 20.8782 20.9111 21.0929 20.7528 21.2512C20.5945 21.4095 20.3798 21.4974 20.156 21.4974ZM5.995 15.4694C5.68899 15.4694 5.38985 15.3786 5.13543 15.2086C4.881 15.0386 4.68272 14.7969 4.56566 14.5142C4.4486 14.2314 4.41803 13.9203 4.4778 13.6202C4.53757 13.3201 4.68501 13.0445 4.90146 12.8281C5.11791 12.6118 5.39365 12.4646 5.69381 12.405C5.99396 12.3454 6.30504 12.3762 6.5877 12.4934C6.87036 12.6107 7.1119 12.8091 7.28177 13.0637C7.45164 13.3182 7.5422 13.6174 7.542 13.9234C7.54147 14.3334 7.37828 14.7265 7.08825 15.0163C6.79822 15.3062 6.40504 15.4691 5.995 15.4694ZM12.527 14.9944C12.1314 14.9944 11.7448 14.8771 11.4159 14.6573C11.087 14.4376 10.8306 14.1252 10.6792 13.7598C10.5279 13.3943 10.4883 12.9922 10.5654 12.6042C10.6426 12.2163 10.8331 11.8599 11.1128 11.5802C11.3925 11.3005 11.7489 11.11 12.1368 11.0328C12.5248 10.9557 12.9269 10.9953 13.2924 11.1466C13.6578 11.298 13.9702 11.5544 14.1899 11.8833C14.4097 12.2122 14.527 12.5988 14.527 12.9944C14.5254 13.5243 14.3142 14.0321 13.9395 14.4069C13.5647 14.7816 13.0569 14.9928 12.527 14.9944ZM18.745 9.85439C18.5904 9.85459 18.4393 9.80893 18.3107 9.72319C18.1821 9.63745 18.0819 9.51548 18.0226 9.37273C17.9634 9.22998 17.9479 9.07287 17.978 8.92127C18.0081 8.76968 18.0825 8.63043 18.1917 8.52114C18.301 8.41186 18.4403 8.33746 18.5919 8.30735C18.7435 8.27725 18.9006 8.2928 19.0433 8.35204C19.1861 8.41127 19.3081 8.51153 19.3938 8.64012C19.4795 8.76871 19.5252 8.91984 19.525 9.07439C19.5247 9.28118 19.4425 9.47942 19.2963 9.62564C19.15 9.77187 18.9518 9.85413 18.745 9.85439ZM13.127 9.35439C12.8501 9.35439 12.5794 9.27229 12.3492 9.11845C12.119 8.96462 11.9395 8.74597 11.8336 8.49015C11.7276 8.23433 11.6999 7.95284 11.7539 7.68127C11.8079 7.40969 11.9413 7.16024 12.1371 6.96444C12.3328 6.76865 12.5823 6.63531 12.8539 6.58129C13.1254 6.52728 13.4069 6.555 13.6628 6.66096C13.9186 6.76693 14.1372 6.94637 14.2911 7.1766C14.4449 7.40682 14.527 7.6775 14.527 7.95439C14.5244 8.32452 14.3759 8.67867 14.1138 8.94002C13.8517 9.20137 13.4971 9.34882 13.127 9.35039V9.35439ZM18.45 5.65639C18.2392 5.65639 18.0331 5.5939 17.8579 5.47681C17.6826 5.35972 17.546 5.19329 17.4652 4.99857C17.3845 4.80384 17.3634 4.58955 17.4044 4.3828C17.4455 4.17604 17.5469 3.98609 17.6959 3.83697C17.8449 3.68785 18.0347 3.58624 18.2414 3.545C18.4481 3.50375 18.6624 3.52472 18.8572 3.60525C19.0521 3.68578 19.2186 3.82226 19.3359 3.99743C19.4531 4.1726 19.5158 4.3786 19.516 4.58939C19.5157 4.87213 19.4034 5.14322 19.2035 5.34323C19.0037 5.54325 18.7327 5.65586 18.45 5.65639Z" fill="white"/>
</svg>
