<svg width="52" height="14" viewBox="0 0 52 14" fill="none" xmlns="http://www.w3.org/2000/svg">
<path fill-rule="evenodd" clip-rule="evenodd" d="M27.4691 0.183105H24.3705L23.4831 5.76079H26.5377L26.2852 7.61997H23.1873L22.2014 13.8171H25.3001L26.286 7.61993H29.8951C31.7128 7.61993 33.2641 6.30581 33.5629 4.51285C33.9407 2.24639 32.1929 0.183188 29.8951 0.183188H27.4691L27.4691 0.183105ZM27.2057 2.04221H28.6538C29.812 2.04221 30.6883 3.08982 30.4837 4.22985C30.3247 5.11579 29.5539 5.76058 28.6538 5.76058H26.5383L27.2057 2.04221Z" fill="white" fill-opacity="0.62"/>
<path fill-rule="evenodd" clip-rule="evenodd" d="M45.7054 0.183105H42.6068L40.4377 13.8171H43.5364L43.559 13.6753L43.5371 13.8173H47.2042C49.0219 13.8173 50.5732 12.5031 50.872 10.7102C51.1131 9.26348 50.4882 7.89959 49.407 7.10224C50.3252 6.55861 50.9959 5.62841 51.1819 4.51285C51.5596 2.24639 49.8118 0.183188 47.5141 0.183188H45.7054L45.7054 0.183105ZM46.892 2.04221H45.4439L44.7765 5.76058H46.892C47.7921 5.76058 48.563 5.11579 48.722 4.22985C48.9266 3.08982 48.0503 2.04221 46.892 2.04221ZM44.5224 7.61981H46.4744C47.8413 7.61981 48.8674 8.86883 48.6022 10.2097C48.4012 11.2257 47.51 11.9579 46.4744 11.9579H43.7256L44.5224 7.61981Z" fill="white" fill-opacity="0.62"/>
<path fill-rule="evenodd" clip-rule="evenodd" d="M30.5546 4.36195C30.9376 1.95481 33.0134 0.183105 35.4508 0.183105H40.7456L40.3513 2.66194H36.2673C34.7312 2.66194 33.423 3.78944 33.1817 5.32132L33.1125 5.76079H30.332L30.5546 4.36195ZM30.0362 7.61997L29.9631 8.07974C29.4841 11.0907 31.8105 13.8165 34.8593 13.8165H38.5766L38.9709 11.3381H35.8945C33.9732 11.3381 32.507 9.60345 32.8089 7.68729L32.8195 7.61997H30.0362Z" fill="white" fill-opacity="0.62"/>
<path fill-rule="evenodd" clip-rule="evenodd" d="M0 0.182861H3.09864L4.80311 10.8967L6.50757 0.182861H6.8175H9.60621H9.91614L11.6204 10.8956L13.3247 0.182861H16.4234L14.2543 13.8169H12.0852H11.1557H8.98655L8.21186 8.94737L7.43716 13.8169H5.26769H4.33853H2.16905L0 0.182861Z" fill="white"/>
<path fill-rule="evenodd" clip-rule="evenodd" d="M20.4323 5.76037L20.761 3.59106H17.6624L17.3337 5.76037H20.4323ZM20.1506 7.61955H17.052L16.113 13.8166H19.2117L20.1506 7.61955Z" fill="white"/>
</svg>
