<svg width="21" height="23" viewBox="0 0 21 23" fill="none" xmlns="http://www.w3.org/2000/svg">
<path d="M8.176 22.6828L2.927 22.6698C2.20965 22.5647 1.54293 22.2385 1.01972 21.7367C0.496508 21.2348 0.142847 20.5822 0.008 19.8698L0 19.7498V3.26284C0.0413185 2.45966 0.372086 1.69862 0.931129 1.12046C1.49017 0.542296 2.23967 0.186134 3.041 0.11784L3.152 0.11084L14.684 0.12784C15.4381 0.206252 16.1417 0.543713 16.6748 1.08272C17.208 1.62173 17.5378 2.32894 17.608 3.08384V13.0108C17.608 13.2283 17.5216 13.4369 17.3678 13.5907C17.214 13.7444 17.0055 13.8308 16.788 13.8308C16.5705 13.8308 16.362 13.7444 16.2082 13.5907C16.0544 13.4369 15.968 13.2283 15.968 13.0108V3.08384C15.968 2.99684 15.878 2.08384 14.426 1.75084H3.218C2.918 1.80284 1.64 2.09984 1.64 3.26384V19.6738C1.7294 20.0254 1.92038 20.3428 2.18911 20.5865C2.45784 20.8301 2.7924 20.9892 3.151 21.0438H8.176C8.39348 21.0438 8.60205 21.1302 8.75583 21.284C8.90961 21.4378 8.996 21.6464 8.996 21.8638C8.996 22.0813 8.90961 22.2899 8.75583 22.4437C8.60205 22.5974 8.39348 22.6838 8.176 22.6838" fill="white"/>
<path d="M14.402 22.6819H13.283L9.38302 19.1609C9.30311 19.0887 9.23821 19.0014 9.19202 18.9041C9.14584 18.8068 9.11927 18.7014 9.11384 18.5938C9.1084 18.4862 9.12421 18.3786 9.16036 18.2772C9.19651 18.1757 9.25229 18.0823 9.32452 18.0024C9.39675 17.9225 9.48401 17.8576 9.58131 17.8114C9.67862 17.7652 9.78408 17.7387 9.89165 17.7332C9.99923 17.7278 10.1068 17.7436 10.2083 17.7798C10.3098 17.8159 10.4031 17.8717 10.483 17.9439L13.727 20.8699L18.533 14.5859C18.5987 14.5006 18.6805 14.429 18.7738 14.3752C18.8672 14.3215 18.9702 14.2867 19.077 14.2728C19.1837 14.2588 19.2922 14.2661 19.3962 14.2941C19.5002 14.3221 19.5977 14.3703 19.683 14.4359C19.7684 14.5016 19.84 14.5834 19.8937 14.6768C19.9474 14.7701 19.9823 14.8731 19.9962 14.9799C20.0101 15.0867 20.0029 15.1951 19.9749 15.2991C19.9469 15.4031 19.8987 15.5006 19.833 15.5859L14.402 22.6819Z" fill="white"/>
<path d="M13.3991 7.1339H4.23309C4.01561 7.1339 3.80704 7.0475 3.65326 6.89372C3.49948 6.73994 3.41309 6.53137 3.41309 6.3139C3.41309 6.09642 3.49948 5.88785 3.65326 5.73407C3.80704 5.58029 4.01561 5.4939 4.23309 5.4939H13.4041C13.6216 5.4939 13.8301 5.58029 13.9839 5.73407C14.1377 5.88785 14.2241 6.09642 14.2241 6.3139C14.2241 6.53137 14.1377 6.73994 13.9839 6.89372C13.8301 7.0475 13.6216 7.1339 13.4041 7.1339" fill="white"/>
<path d="M13.3991 10.6019H4.23309C4.01561 10.6019 3.80704 10.5155 3.65326 10.3617C3.49948 10.208 3.41309 9.99939 3.41309 9.78192C3.41309 9.56444 3.49948 9.35587 3.65326 9.20209C3.80704 9.04831 4.01561 8.96191 4.23309 8.96191H13.4041C13.6216 8.96191 13.8301 9.04831 13.9839 9.20209C14.1377 9.35587 14.2241 9.56444 14.2241 9.78192C14.2241 9.99939 14.1377 10.208 13.9839 10.3617C13.8301 10.5155 13.6216 10.6019 13.4041 10.6019" fill="white"/>
<path d="M9.69109 14.1109H4.23309C4.01561 14.1109 3.80704 14.0246 3.65326 13.8708C3.49948 13.717 3.41309 13.5084 3.41309 13.2909C3.41309 13.0735 3.49948 12.8649 3.65326 12.7111C3.80704 12.5573 4.01561 12.4709 4.23309 12.4709H9.69609C9.91356 12.4709 10.1221 12.5573 10.2759 12.7111C10.4297 12.8649 10.5161 13.0735 10.5161 13.2909C10.5161 13.5084 10.4297 13.717 10.2759 13.8708C10.1221 14.0246 9.91356 14.1109 9.69609 14.1109" fill="white"/>
</svg>
