<svg width="22" height="26" viewBox="0 0 22 26" fill="none" xmlns="http://www.w3.org/2000/svg">
<path fill-rule="evenodd" clip-rule="evenodd" d="M1 0.00512695C0.447715 0.00512695 0 0.452842 0 1.00513V24.9949C0 25.5472 0.447715 25.9949 1 25.9949H21C21.5523 25.9949 22 25.5472 22 24.9949V7.9433C22 7.66023 21.88 7.39042 21.6699 7.20081L13.9792 0.262632C13.7955 0.0968748 13.5568 0.00512695 13.3094 0.00512695H1ZM2 23.9949V2.00513H11.3896V9.1038V10.1038H12.3896H20V23.9949H2ZM19.685 8.1038L13.3896 2.42434V8.1038H19.685ZM16.3274 15.201H5.56665V13.201H16.3274V15.201ZM5.56665 20.1672H13.8441V18.1672H5.56665V20.1672Z" fill="white"/>
</svg>
