<svg width="22" height="15" viewBox="0 0 22 15" fill="none" xmlns="http://www.w3.org/2000/svg">
<path d="M20.0011 14.605C19.9147 14.6049 19.8294 14.5849 19.7519 14.5466C19.6745 14.5082 19.6068 14.4526 19.5542 14.384C19.5016 14.3154 19.4655 14.2356 19.4487 14.1508C19.4319 14.066 19.4348 13.9785 19.4571 13.895C21.3571 6.83498 16.2071 3.49498 15.9871 3.35098C11.2231 0.189977 6.29815 3.21998 6.08715 3.35098C0.447147 6.90398 2.42715 13.593 2.51415 13.876C2.55831 14.0187 2.54397 14.173 2.4743 14.3052C2.40463 14.4373 2.28533 14.5363 2.14265 14.5805C1.99996 14.6246 1.84558 14.6103 1.71346 14.5406C1.58134 14.471 1.48231 14.3517 1.43815 14.209C1.41815 14.131 -0.888853 6.41598 5.49015 2.39798C5.72015 2.25298 11.2271 -1.15802 16.5981 2.40598C18.4133 3.70343 19.7723 5.54111 20.4811 7.65674C21.1899 9.77238 21.2123 12.0578 20.5451 14.187C20.513 14.3067 20.4423 14.4124 20.3439 14.4878C20.2456 14.5632 20.1251 14.604 20.0011 14.604" fill="white"/>
<path d="M12.0692 10.34C11.9577 10.3403 11.8486 10.3076 11.7558 10.2459C11.6629 10.1842 11.5905 10.0963 11.5476 9.99333C11.5048 9.8904 11.4935 9.77706 11.5151 9.66769C11.5367 9.55832 11.5904 9.45784 11.6692 9.37898L14.3532 6.69498C14.4057 6.64245 14.4681 6.60079 14.5367 6.57236C14.6053 6.54393 14.6789 6.5293 14.7532 6.5293C14.8275 6.5293 14.901 6.54393 14.9697 6.57236C15.0383 6.60079 15.1007 6.64245 15.1532 6.69498C15.2057 6.74751 15.2474 6.80987 15.2758 6.8785C15.3042 6.94714 15.3189 7.0207 15.3189 7.09498C15.3189 7.16927 15.3042 7.24283 15.2758 7.31146C15.2474 7.38009 15.2057 7.44245 15.1532 7.49498L12.4692 10.179C12.4168 10.2316 12.3544 10.2733 12.2857 10.3016C12.2171 10.3299 12.1435 10.3443 12.0692 10.344" fill="white"/>
<path d="M16.982 8.06188C16.8613 8.06221 16.7436 8.02372 16.6464 7.95208C16.5492 7.88044 16.4777 7.77945 16.4422 7.66401C16.4068 7.54858 16.4095 7.42482 16.4498 7.31099C16.4901 7.19717 16.5659 7.09932 16.666 7.03188L18.842 5.56288C18.9032 5.51978 18.9724 5.48932 19.0456 5.47328C19.1187 5.45724 19.1943 5.45594 19.2679 5.46947C19.3415 5.483 19.4117 5.51107 19.4744 5.55205C19.537 5.59304 19.5909 5.6461 19.6328 5.70814C19.6747 5.77019 19.7038 5.83996 19.7184 5.91339C19.733 5.98681 19.7328 6.06241 19.7178 6.13576C19.7028 6.20911 19.6734 6.27874 19.6312 6.34058C19.589 6.40241 19.5349 6.45521 19.472 6.49588L17.296 7.96488C17.2035 8.0292 17.0937 8.06406 16.981 8.06488" fill="white"/>
<path d="M17.8202 11.4889C17.6709 11.4903 17.5272 11.4322 17.4207 11.3276C17.3141 11.2229 17.2535 11.0803 17.2522 10.9309C17.2509 10.7816 17.3089 10.6379 17.4136 10.5314C17.5182 10.4249 17.6609 10.3643 17.8102 10.3629L20.4272 10.3149C20.5757 10.3151 20.7184 10.3728 20.8252 10.4759C20.9321 10.579 20.9948 10.7196 21.0002 10.8679C21.0015 10.9419 20.9883 11.0154 20.9612 11.0842C20.9341 11.153 20.8938 11.2158 20.8424 11.269C20.7911 11.3222 20.7297 11.3648 20.6619 11.3943C20.5941 11.4238 20.5212 11.4396 20.4472 11.4409L17.8302 11.4889H17.8202Z" fill="white"/>
<path d="M14.2732 5.42291C14.1688 5.42272 14.0665 5.39352 13.9778 5.33856C13.889 5.2836 13.8173 5.20506 13.7706 5.11169C13.7239 5.01832 13.7041 4.91382 13.7134 4.80984C13.7227 4.70587 13.7607 4.60653 13.8232 4.52291L15.4812 2.30991C15.5241 2.2473 15.5793 2.19402 15.6434 2.15329C15.7075 2.11256 15.7791 2.08521 15.8541 2.07289C15.929 2.06057 16.0056 2.06353 16.0794 2.0816C16.1531 2.09967 16.2225 2.13247 16.2832 2.17803C16.344 2.22359 16.3949 2.28096 16.4329 2.34671C16.4709 2.41245 16.4952 2.48519 16.5043 2.56057C16.5135 2.63595 16.5073 2.7124 16.4861 2.78532C16.465 2.85825 16.4293 2.92614 16.3812 2.98491L14.7242 5.20191C14.6719 5.27217 14.6038 5.32921 14.5255 5.36846C14.4472 5.4077 14.3608 5.42806 14.2732 5.42791" fill="white"/>
<path d="M10.9902 4.58796C10.8409 4.58796 10.6977 4.52864 10.5921 4.42306C10.4866 4.31747 10.4272 4.17427 10.4272 4.02496V1.36696C10.4272 1.21764 10.4866 1.07444 10.5921 0.968854C10.6977 0.863271 10.8409 0.803955 10.9902 0.803955C11.1396 0.803955 11.2828 0.863271 11.3883 0.968854C11.4939 1.07444 11.5532 1.21764 11.5532 1.36696V4.02496C11.5532 4.17427 11.4939 4.31747 11.3883 4.42306C11.2828 4.52864 11.1396 4.58796 10.9902 4.58796Z" fill="white"/>
<path d="M7.66024 5.45195C7.5701 5.45208 7.48125 5.43052 7.40119 5.3891C7.32113 5.34768 7.25221 5.2876 7.20024 5.21395L5.64824 3.01795C5.56651 2.89595 5.53568 2.74685 5.56233 2.60244C5.58897 2.45803 5.67099 2.32975 5.79088 2.24496C5.91076 2.16016 6.05904 2.12556 6.20407 2.14854C6.34911 2.17152 6.47943 2.25025 6.56724 2.36795L8.11924 4.56195C8.17878 4.64618 8.21404 4.74515 8.22117 4.84805C8.2283 4.95095 8.20702 5.05384 8.15965 5.14547C8.11229 5.2371 8.04066 5.31396 7.95259 5.36765C7.86452 5.42135 7.76339 5.44982 7.66024 5.44995" fill="white"/>
<path d="M5.0952 8.24589C4.97337 8.24618 4.85475 8.20687 4.7572 8.13389L2.4472 6.40189C2.38589 6.35835 2.33393 6.30297 2.29438 6.23901C2.25482 6.17506 2.22848 6.10383 2.21691 6.02953C2.20534 5.95523 2.20877 5.87936 2.227 5.80641C2.24523 5.73345 2.27788 5.66489 2.32305 5.60476C2.36821 5.54464 2.42495 5.49417 2.48994 5.45633C2.55492 5.4185 2.62683 5.39407 2.70141 5.38448C2.776 5.37489 2.85174 5.38034 2.92419 5.40051C2.99663 5.42067 3.0643 5.45514 3.1232 5.50189L5.4332 7.23389C5.52799 7.30472 5.59806 7.40362 5.63344 7.51655C5.66883 7.62947 5.66773 7.75067 5.63031 7.86293C5.59289 7.97519 5.52105 8.07281 5.42499 8.14191C5.32893 8.21102 5.21353 8.2481 5.0952 8.24789" fill="white"/>
<path d="M1.56312 11.466C1.41314 11.4667 1.26904 11.4078 1.16252 11.3022C1.056 11.1966 0.995786 11.053 0.995123 10.903C0.99446 10.7531 1.0534 10.609 1.15899 10.5024C1.26457 10.3959 1.40814 10.3357 1.55812 10.335L4.08412 10.311H4.09012C4.23944 10.311 4.38264 10.3704 4.48822 10.4759C4.59381 10.5815 4.65312 10.7247 4.65312 10.874C4.65312 11.0234 4.59381 11.1666 4.48822 11.2721C4.38264 11.3777 4.23944 11.437 4.09012 11.437L1.56412 11.461L1.56312 11.466Z" fill="white"/>
<path d="M11.0002 12.6449C10.6442 12.6449 10.2962 12.5394 10.0002 12.3416C9.70416 12.1438 9.47345 11.8627 9.33721 11.5338C9.20098 11.2048 9.16533 10.8429 9.23478 10.4938C9.30424 10.1446 9.47567 9.82387 9.72741 9.57213C9.97914 9.3204 10.2999 9.14896 10.649 9.07951C10.9982 9.01006 11.3601 9.0457 11.689 9.18194C12.0179 9.31818 12.2991 9.54889 12.4968 9.8449C12.6946 10.1409 12.8002 10.4889 12.8002 10.8449C12.8002 11.3223 12.6106 11.7801 12.273 12.1177C11.9354 12.4553 11.4776 12.6449 11.0002 12.6449ZM11.0002 10.1769C10.8675 10.1769 10.7378 10.2163 10.6274 10.29C10.5171 10.3637 10.4311 10.4685 10.3803 10.5911C10.3295 10.7138 10.3162 10.8487 10.3421 10.9788C10.368 11.109 10.4319 11.2285 10.5257 11.3224C10.6196 11.4162 10.7391 11.4801 10.8693 11.506C10.9995 11.5319 11.1344 11.5186 11.257 11.4678C11.3796 11.4171 11.4844 11.3311 11.5581 11.2207C11.6318 11.1104 11.6712 10.9806 11.6712 10.8479C11.6709 10.67 11.6002 10.4995 11.4744 10.3737C11.3486 10.248 11.1781 10.1772 11.0002 10.1769Z" fill="white"/>
</svg>
