<svg width="20" height="17" viewBox="0 0 20 17" fill="none" xmlns="http://www.w3.org/2000/svg">
<path d="M1.87615 1.63937e-07C1.50525 -0.000154894 1.14264 0.109687 0.834176 0.315634C0.52571 0.521581 0.285249 0.814381 0.143205 1.157C0.00116149 1.49962 -0.0360841 1.87667 0.0361794 2.24046C0.108443 2.60425 0.286969 2.93844 0.549178 3.20076C0.811388 3.46308 1.1455 3.64174 1.50926 3.71416C1.87302 3.78657 2.25009 3.74949 2.59276 3.60758C2.93544 3.46568 3.22834 3.22535 3.43442 2.91697C3.6405 2.60859 3.75049 2.24602 3.75049 1.87512C3.75049 1.37795 3.55304 0.901119 3.20156 0.549488C2.85007 0.197857 2.37333 0.000208014 1.87615 1.63937e-07ZM1.87615 6.24936C1.50529 6.24936 1.14275 6.35934 0.834389 6.56538C0.526027 6.77142 0.285688 7.06427 0.143764 7.40691C0.00184053 7.74954 -0.0352932 8.12656 0.0370589 8.4903C0.109411 8.85404 0.287999 9.18816 0.55024 9.4504C0.81248 9.71264 1.1466 9.89123 1.51033 9.96358C1.87407 10.0359 2.2511 9.9988 2.59373 9.85687C2.93636 9.71495 3.22922 9.47461 3.43526 9.16625C3.6413 8.85788 3.75127 8.49535 3.75127 8.12449C3.75127 7.87824 3.70277 7.63441 3.60854 7.40691C3.5143 7.17941 3.37618 6.97269 3.20206 6.79857C3.02794 6.62445 2.82123 6.48633 2.59373 6.3921C2.36623 6.29786 2.1224 6.24936 1.87615 6.24936ZM1.87615 12.4987C1.50522 12.4986 1.14258 12.6084 0.834094 12.8144C0.525612 13.0204 0.285151 13.3132 0.14313 13.6559C0.00110961 13.9986 -0.0360901 14.3757 0.0362369 14.7395C0.108564 15.1033 0.287168 15.4375 0.549456 15.6998C0.811744 15.962 1.14593 16.1407 1.50974 16.213C1.87355 16.2853 2.25064 16.2481 2.59331 16.1061C2.93597 15.9641 3.22882 15.7236 3.4348 15.4151C3.64078 15.1066 3.75064 14.744 3.75049 14.3731C3.75049 13.8757 3.55293 13.3988 3.20128 13.0472C2.84963 12.6955 2.37268 12.4979 1.87537 12.4979L1.87615 12.4987ZM19.3739 13.1259H6.87517C6.70885 13.1259 6.54933 13.1919 6.43172 13.3095C6.31411 13.4271 6.24804 13.5867 6.24804 13.753V15.0025C6.24804 15.1689 6.31411 15.3284 6.43172 15.446C6.54933 15.5636 6.70885 15.6297 6.87517 15.6297H19.3731C19.5394 15.6297 19.699 15.5636 19.8166 15.446C19.9342 15.3284 20.0002 15.1689 20.0002 15.0025V13.7483C19.9996 13.5824 19.9333 13.4235 19.8157 13.3064C19.6982 13.1893 19.539 13.1235 19.3731 13.1235L19.3739 13.1259ZM19.3739 0.627132H6.87517C6.70885 0.627132 6.54933 0.693204 6.43172 0.810814C6.31411 0.928424 6.24804 1.08794 6.24804 1.25426V2.4999C6.24804 2.66623 6.31411 2.82574 6.43172 2.94335C6.54933 3.06096 6.70885 3.12703 6.87517 3.12703H19.3731C19.5394 3.12703 19.699 3.06096 19.8166 2.94335C19.9342 2.82574 20.0002 2.66623 20.0002 2.4999V1.24956C19.9996 1.08364 19.9333 0.924732 19.8157 0.80763C19.6982 0.690528 19.539 0.624778 19.3731 0.62478L19.3739 0.627132ZM19.3739 6.87649H6.87517C6.70885 6.87649 6.54933 6.94257 6.43172 7.06018C6.31411 7.17779 6.24804 7.3373 6.24804 7.50362V8.75318C6.24804 8.91951 6.31411 9.07902 6.43172 9.19663C6.54933 9.31424 6.70885 9.38031 6.87517 9.38031H19.3731C19.5394 9.38031 19.699 9.31424 19.8166 9.19663C19.9342 9.07902 20.0002 8.91951 20.0002 8.75318V7.49892C19.9996 7.333 19.9333 7.17409 19.8157 7.05699C19.6982 6.93989 19.539 6.87414 19.3731 6.87414L19.3739 6.87649Z" fill="white"/>
</svg>
