<svg width="14" height="18" viewBox="0 0 14 18" fill="none" xmlns="http://www.w3.org/2000/svg">
<path d="M12.2672 18H1.33101C0.969858 17.9897 0.627398 17.8371 0.37817 17.5756C0.128942 17.314 -0.00687904 16.9646 0.000268459 16.6033V7.16568C-0.00207617 6.21266 0.179956 5.26819 0.536333 4.38431C0.873462 3.54045 1.36743 2.76812 1.9921 2.10817C2.60391 1.45616 3.33918 0.932211 4.1552 0.566773C4.98731 0.193162 5.88912 0 6.80126 0C7.71341 0 8.61521 0.193162 9.44733 0.566773C10.2618 0.933253 10.9957 1.45709 11.607 2.10817C12.2315 2.76826 12.7254 3.54056 13.0628 4.38431C13.4189 5.26811 13.5995 6.21282 13.5946 7.16568V7.89099V8.27377V16.6033C13.5969 16.7904 13.562 16.9761 13.4919 17.1496C13.4217 17.3231 13.3178 17.4809 13.1861 17.6138C13.0664 17.7361 12.9234 17.8333 12.7656 17.8997C12.6079 17.966 12.4384 18.0001 12.2672 18ZM1.3704 9.12753V16.6016C1.36893 16.6107 1.36893 16.6199 1.3704 16.629H12.2313C12.2324 16.6199 12.2324 16.6107 12.2313 16.6016V9.12753H1.3704ZM4.68869 1.82986C4.04865 2.12188 3.47181 2.53611 2.99058 3.04928C2.48336 3.58419 2.08208 4.21037 1.80799 4.89468C1.51813 5.6161 1.36958 6.38649 1.3704 7.16396V7.7634H12.2287V7.16568C12.2312 6.38749 12.0826 5.61623 11.7911 4.89468C11.5169 4.21036 11.116 3.58397 10.6094 3.04843C10.1189 2.53003 9.53265 2.11157 8.88301 1.81616C8.22792 1.52252 7.5183 1.37021 6.80041 1.36916C6.08222 1.3674 5.37212 1.52076 4.71866 1.81873L4.69297 1.82901L4.68869 1.82986ZM6.80383 14.6423C6.63516 14.6421 6.47345 14.575 6.35418 14.4557C6.23491 14.3364 6.1678 14.1747 6.16758 14.0061V12.2078C6.00247 12.1001 5.86646 11.9533 5.77162 11.7805C5.67677 11.6077 5.626 11.4141 5.62381 11.217C5.62338 11.0125 5.67619 10.8114 5.77705 10.6334C5.87791 10.4555 6.02334 10.3069 6.19904 10.2022C6.37474 10.0976 6.57466 10.0404 6.77914 10.0364C6.98362 10.0325 7.18561 10.0818 7.36526 10.1795C7.54491 10.2772 7.69603 10.4201 7.80375 10.5939C7.91147 10.7678 7.97208 10.9667 7.97963 11.171C7.98718 11.3754 7.9414 11.5782 7.8468 11.7596C7.7522 11.9409 7.61204 12.0945 7.44009 12.2052V14.0035C7.44031 14.0872 7.42403 14.1702 7.39217 14.2476C7.3603 14.3251 7.31349 14.3955 7.25439 14.4548C7.1953 14.5141 7.12509 14.5612 7.04778 14.5934C6.97047 14.6256 6.88757 14.6422 6.80383 14.6423Z" fill="black"/>
</svg>
