<svg width="17" height="17" viewBox="0 0 17 17" fill="none" xmlns="http://www.w3.org/2000/svg">
<path fill-rule="evenodd" clip-rule="evenodd" d="M16.6613 10.5142C17.1075 8.79324 16.9696 6.9728 16.2693 5.33864C15.569 3.70447 14.3459 2.34909 12.792 1.48523C11.2381 0.621367 9.44135 0.297922 7.68373 0.565661C5.92611 0.8334 4.30715 1.67717 3.08093 2.96453C1.85472 4.25189 1.09068 5.90998 0.908719 7.67853C0.740571 9.31289 1.07832 10.9561 1.87112 12.3878L0 14.2589L6.76257 16.0709L4.95055 9.30837L2.98534 11.2736C2.48363 10.2051 2.27906 9.01572 2.40084 7.83205C2.54879 6.39403 3.17004 5.04584 4.16708 3.99908C5.16411 2.95232 6.4805 2.26625 7.90962 2.04855C9.33874 1.83086 10.7997 2.09385 12.0632 2.79626C13.3267 3.49867 14.3212 4.60073 14.8906 5.92947C15.46 7.25822 15.5721 8.73842 15.2093 10.1378C14.8465 11.5371 14.0293 12.7764 12.886 13.661C11.7427 14.5457 10.338 15.0257 8.89236 15.0257V16.5257C10.6703 16.5257 12.3978 15.9354 13.8039 14.8473C15.21 13.7593 16.215 12.2352 16.6613 10.5142Z" fill="#417ADB"/>
</svg>
