<svg width="22" height="22" viewBox="0 0 22 22" fill="none" xmlns="http://www.w3.org/2000/svg">
<path d="M20.7228 13.9933H18.1693V10.4389C18.1693 10.336 18.0809 10.2518 17.9728 10.2518H11.8835V8.00692H14.5353C14.7514 8.00692 14.9282 7.83855 14.9282 7.63277V0.898075C14.9282 0.692293 14.7514 0.523926 14.5353 0.523926H7.4639C7.24783 0.523926 7.07105 0.692293 7.07105 0.898075V7.63277C7.07105 7.83855 7.24783 8.00692 7.4639 8.00692H10.1157V10.2518H4.0264C3.91837 10.2518 3.82997 10.336 3.82997 10.4389V13.9933H1.2764C1.06033 13.9933 0.883545 14.1617 0.883545 14.3675V21.1022C0.883545 21.3079 1.06033 21.4763 1.2764 21.4763H8.34783C8.5639 21.4763 8.74069 21.3079 8.74069 21.1022V14.3675C8.74069 14.1617 8.5639 13.9933 8.34783 13.9933H5.59783V11.9355H16.4014V13.9933H13.6514C13.4353 13.9933 13.2585 14.1617 13.2585 14.3675V21.1022C13.2585 21.3079 13.4353 21.4763 13.6514 21.4763H20.7228C20.9389 21.4763 21.1157 21.3079 21.1157 21.1022V14.3675C21.1157 14.1617 20.9389 13.9933 20.7228 13.9933ZM6.87462 15.7705V19.6991H2.74962V15.7705H6.87462ZM8.93712 6.22971V2.30114H13.0621V6.22971H8.93712ZM19.2496 19.6991H15.1246V15.7705H19.2496V19.6991Z" fill="white"/>
</svg>
