<svg width="1em" height="1em" viewBox="0 0 17 18" fill="currentColor" xmlns="http://www.w3.org/2000/svg">
<path d="M14.459 17.2588H2.72725C2.38066 17.2586 2.04834 17.1208 1.80326 16.8758C1.55819 16.6307 1.42042 16.2984 1.42021 15.9518V4.40454H0.835166C0.666388 4.39442 0.50784 4.32025 0.391912 4.19717C0.275984 4.07409 0.211426 3.91139 0.211426 3.74231C0.211426 3.57323 0.275984 3.41053 0.391912 3.28744C0.50784 3.16436 0.666388 3.09019 0.835166 3.08008H4.27337V2.01212C4.27358 1.66554 4.41136 1.33321 4.65643 1.08813C4.9015 0.843061 5.23383 0.705288 5.58042 0.705078L11.4198 0.705078C11.7662 0.705497 12.0983 0.843363 12.3432 1.08841C12.5881 1.33346 12.7258 1.66567 12.726 2.01212V3.08008H16.1476C16.3294 3.07983 16.5043 3.15022 16.6353 3.27641C16.697 3.33746 16.746 3.41022 16.7793 3.49042C16.8126 3.57062 16.8296 3.65665 16.8292 3.74349C16.8245 3.9211 16.7506 4.08983 16.6232 4.21375C16.4959 4.33767 16.3253 4.40697 16.1476 4.40691H15.7676V15.9518C15.7675 16.1235 15.7335 16.2936 15.6677 16.4522C15.6019 16.6108 15.5055 16.755 15.384 16.8763C15.2625 16.9977 15.1182 17.0939 14.9595 17.1596C14.8008 17.2252 14.6307 17.2589 14.459 17.2588ZM2.72725 4.40454V15.9502H14.4566V4.40454H2.72725ZM5.57725 2.01529V3.08879H11.4134V2.01529H5.57725ZM12.0689 14.1531C11.892 14.1529 11.7224 14.0825 11.5972 13.9574C11.4721 13.8323 11.4018 13.6627 11.4015 13.4857V7.29491C11.4015 7.11791 11.4719 6.94816 11.597 6.82301C11.7222 6.69785 11.8919 6.62754 12.0689 6.62754C12.2459 6.62754 12.4157 6.69785 12.5408 6.82301C12.666 6.94816 12.7363 7.11791 12.7363 7.29491V13.485C12.7363 13.6622 12.6659 13.8321 12.5406 13.9574C12.4153 14.0827 12.2453 14.1531 12.0681 14.1531H12.0689ZM8.49217 14.1531C8.31523 14.1529 8.1456 14.0825 8.02049 13.9574C7.89538 13.8323 7.825 13.6627 7.82479 13.4857V7.29491C7.82479 7.11791 7.8951 6.94816 8.02026 6.82301C8.14542 6.69785 8.31517 6.62754 8.49217 6.62754C8.66917 6.62754 8.83891 6.69785 8.96407 6.82301C9.08923 6.94816 9.15954 7.11791 9.15954 7.29491V13.485C9.15954 13.6622 9.08914 13.8321 8.96384 13.9574C8.83853 14.0827 8.66858 14.1531 8.49137 14.1531H8.49217ZM4.87821 14.1531C4.70127 14.1529 4.53165 14.0825 4.40653 13.9574C4.28142 13.8323 4.21104 13.6627 4.21083 13.4857V7.29491C4.21083 7.11791 4.28115 6.94816 4.4063 6.82301C4.53146 6.69785 4.70121 6.62754 4.87821 6.62754C5.05521 6.62754 5.22496 6.69785 5.35011 6.82301C5.47527 6.94816 5.54558 7.11791 5.54558 7.29491V13.485C5.54558 13.662 5.4753 13.8319 5.35016 13.9571C5.22503 14.0824 5.05528 14.1529 4.87821 14.1531Z" fill="#333333"/>
</svg>
